<?xml version="1.0" standalone="no"?><!DOCTYPE svg PUBLIC "-//W3C//DTD SVG 1.1//EN" "http://www.w3.org/Graphics/SVG/1.1/DTD/svg11.dtd"><svg t="1574249158233" class="icon" viewBox="0 0 1024 1024" version="1.1" xmlns="http://www.w3.org/2000/svg" p-id="1204" xmlns:xlink="http://www.w3.org/1999/xlink" width="200" height="200"><defs><style type="text/css"></style></defs><path d="M426.542817 0.599756h170.530695C710.527404-1.899228 833.477436 32.886635 911.045912 112.954095c80.167419 77.568476 114.853323 200.518508 112.454298 313.972399v170.530696c2.399025 113.453892-32.286878 236.403924-112.454298 313.972399-77.568476 80.167419-200.518508 114.853323-313.9724 112.454298H426.542817c-113.453892 2.399025-236.403924-32.286878-313.9724-112.454298C32.402998 833.961073-2.282906 711.011041 0.116119 597.557149V427.026454C-2.282906 313.472603 32.402998 190.52257 112.570417 112.954095 190.138893 32.886635 313.088925-1.899228 426.542817 0.599756z" fill="#0AD8EA" p-id="1205"></path><path d="M112.570417 112.954095C36.90117 186.224317 1.715469 299.878128 0.116119 407.834254c137.943939 0 249.79848-111.954501 249.798481-249.89844 0-42.782613-10.795613-83.066241-29.687935-118.251942-40.583507 17.892728-77.568476 42.182857-107.656248 73.270223z" fill="#FFFFFF" opacity=".5" p-id="1206"></path><path d="M517.605808 798.975291c-3.798456 0.699716-7.796831 0.699716-11.695247 0C361.269344 771.086626 251.913787 643.83834 251.913787 490.900495c0-60.375463 17.093053-116.652592 46.581069-164.533133 2.698903-4.298253 7.297034-6.897197 12.394963-7.197075 64.973594-4.198294 123.049992-33.386432 164.733051-78.068272 20.291753-21.691185 52.278754-21.691185 72.670467 0 41.68306 44.581882 99.659498 73.770019 164.433173 78.068272 4.997969 0.299878 9.696059 2.898822 12.394963 7.197075 29.587975 47.780582 46.681029 104.15767 46.681028 164.533133-0.099959 152.937845-109.455517 280.186131-254.196693 308.074796z m76.568882-318.470571l-46.48111-0.199919c-4.598131 0-8.696466-2.898822-10.395775-7.197075L521.004427 429.825316c-3.698497-9.796019-17.69281-9.496141-20.991469 0.399838l-14.594069 43.882166c-1.499391 4.398213-5.497766 7.396994-10.095897 7.596912l-46.38115 2.099147c-10.495734 0.499797-14.594069 13.994313-6.097522 20.191794l37.284847 27.088991c3.798456 2.698903 5.397806 7.496953 4.198294 11.995125l-12.295003 44.381963c-2.798863 10.095897 8.696466 18.192606 17.193012 12.095085l37.884604-26.989032c3.698497-2.698903 8.696466-2.798863 12.594881-0.299878l38.984157 25.389681c8.796425 5.697684 19.891916-2.798863 16.693216-12.7948l-14.094272-43.782206c-1.399431-4.398213 0-9.296222 3.698497-12.195044l36.085334-28.688341c8.296628-6.297441 3.698497-19.592038-6.897197-19.691997z" fill="#FFFFFF" p-id="1207"></path><path d="M702.530654 687.02079c-14.993906-5.397806-31.187325-8.296628-47.980501-8.296628-71.171076 0-130.247067 52.178794-140.94272 120.351089 1.399431-0.099959 2.698903-0.199919 4.098335-0.499797 74.169857-14.39415 139.143451-54.877697 184.824886-111.554664z" fill="#0AD8EA" opacity=".5" p-id="1208"></path></svg>