<?xml version="1.0" standalone="no"?><!DOCTYPE svg PUBLIC "-//W3C//DTD SVG 1.1//EN" "http://www.w3.org/Graphics/SVG/1.1/DTD/svg11.dtd"><svg t="1574249146941" class="icon" viewBox="0 0 1024 1024" version="1.1" xmlns="http://www.w3.org/2000/svg" p-id="1072" xmlns:xlink="http://www.w3.org/1999/xlink" width="200" height="200"><defs><style type="text/css"></style></defs><path d="M426.542817 0.599756h170.530695C710.527404-1.899228 833.477436 32.886635 911.045912 112.954095c80.167419 77.568476 114.853323 200.518508 112.454298 313.972399v170.530696c2.399025 113.453892-32.286878 236.403924-112.454298 313.972399-77.568476 80.167419-200.518508 114.853323-313.9724 112.454298H426.542817c-113.453892 2.399025-236.403924-32.286878-313.9724-112.454298C32.402998 833.961073-2.282906 711.011041 0.116119 597.557149V427.026454C-2.282906 313.472603 32.402998 190.52257 112.570417 112.954095 190.138893 32.886635 313.088925-1.899228 426.542817 0.599756z" fill="#FF3770" p-id="1073"></path><path d="M112.570417 112.954095C36.90117 186.224317 1.715469 299.878128 0.116119 407.834254c137.943939 0 249.79848-111.954501 249.798481-249.89844 0-42.782613-10.795613-83.066241-29.687935-118.251942-40.583507 17.892728-77.568476 42.182857-107.656248 73.270223z" fill="#FFFFFF" opacity=".5" p-id="1074"></path><path d="M492.216127 815.768467c-131.946376-9.995938-223.309246-132.346214-219.310871-274.088609 1.799269-66.373026 41.783019-132.246254 96.960595-161.234473 7.99675 59.575788 16.893135 97.560351 47.180825 111.654622-3.098741-25.68956-11.795206-110.355151-6.197481-136.844385 22.190981-104.857385 58.076397-112.654217 87.164576-136.044711 27.488828-17.292972 63.874041-9.796019 69.371807-8.396587-12.295003 14.793988-15.793581 25.5896-25.489641 74.169857-17.392931 86.56482 7.097116 107.35637 36.585131 161.934189-1.999188-16.693216 3.998375-65.67331 19.392119-92.662342 35.1857-61.774894 47.380744-58.576194 62.574569-61.275097 1.59935 2.099147 3.298659 3.998375 4.89801 6.197481 1.099553 1.59935 2.099147 3.298659 3.1987 4.898009 9.296222 149.339308 43.082491 143.441704 65.67331 201.018305 3.498578 8.896384 5.997563 22.3909 8.996344 25.889479 3.398619 22.990656 6.097522 34.685903 7.197075 48.480297 10.795613 141.042679-126.348651 246.399862-258.195068 236.303965zM581.879687 612.750974c-5.397806 47.380744-21.591225 89.563601-29.288097 49.279972-7.596913-39.98375-12.894759-62.374651-34.386025-101.058929-16.09346-11.595288-28.388463-20.191794-28.488423-22.29094-1.799269-4.298253-0.899634 49.979688-24.989844 82.866322-19.991875 37.684685-64.873635 53.978063-62.37465 85.065429 4.898009 65.273472 49.080054 107.656248 109.355557 108.355964 59.775707 0.399838 112.15442-48.180419 109.755395-108.555883-4.698091-35.685497-6.497359-61.475016-39.583913-93.661935z" fill="#FFFFFF" p-id="1075"></path><path d="M750.211276 579.364543c-1.099553-13.794394-3.798456-25.489641-7.197075-48.480298-2.898822-3.498578-5.497766-16.993094-8.996344-25.889478-1.899228-4.898009-3.998375-9.396181-5.997562-13.494516-49.779769 50.579444-80.467298 119.951251-80.467298 196.420174 0 27.488828 3.998375 53.978063 11.295409 78.967907 58.376276-42.682654 97.460391-109.655435 91.36287-187.523789z" fill="#FF3770" opacity=".5" p-id="1076"></path></svg>